<svg width="48" height="48" viewBox="0 0 48 48" fill="none" xmlns="http://www.w3.org/2000/svg">
<path d="M29.006 2.59288L23.9999 0L18.9938 2.59288L13.4197 3.43769L10.8938 8.47788L6.88086 12.4377L7.79988 18L6.88086 23.5623L10.8938 27.5221L13.4197 32.5623L18.9938 33.4071L23.9999 36L29.006 33.4071L34.58 32.5623L37.106 27.5221L41.1189 23.5623L40.1999 18L41.1189 12.4377L37.106 8.47788L34.58 3.43769L29.006 2.59288ZM32.5942 6.17098L34.646 10.2651L37.9057 13.4817L37.1592 18L37.9057 22.5183L34.646 25.7349L32.5942 29.829L28.0663 30.5153L23.9999 32.6215L19.9334 30.5153L15.4056 29.829L13.3538 25.7349L10.094 22.5183L10.8405 18L10.094 13.4817L13.3538 10.2651L15.4056 6.17098L19.9334 5.48473L23.9999 3.37852L28.0663 5.48473L32.5942 6.17098Z" fill="#D4CF9B"/>
<path d="M11.9999 35.3814V48L23.9999 45L35.9999 48V35.3814L29.9455 36.299L23.9998 39.3786L18.0542 36.299L11.9999 35.3814Z" fill="#D4CF9B"/>
</svg>
