<svg width="48" height="48" viewBox="0 0 48 48" fill="none" xmlns="http://www.w3.org/2000/svg">
<path d="M31.4337 4.94116C31.6773 4.14937 31.233 3.30999 30.4412 3.06636C29.6494 2.82274 28.81 3.26711 28.5664 4.0589L16.5664 43.0589C16.3227 43.8507 16.7671 44.6901 17.5589 44.9337C18.3507 45.1773 19.1901 44.7329 19.4337 43.9412L31.4337 4.94116Z" fill="#ECD087"/>
<path d="M14.5607 12.4393C15.1464 13.0251 15.1464 13.9749 14.5607 14.5607L5.12132 24L14.5607 33.4393C15.1464 34.0251 15.1464 34.9749 14.5607 35.5607C13.9749 36.1464 13.0251 36.1464 12.4393 35.5607L1.93934 25.0607C1.35355 24.4749 1.35355 23.5251 1.93934 22.9393L12.4393 12.4393C13.0251 11.8536 13.9749 11.8536 14.5607 12.4393Z" fill="#ECD087"/>
<path d="M33.4393 12.4393C32.8536 13.0251 32.8536 13.9749 33.4393 14.5607L42.8787 24L33.4393 33.4393C32.8536 34.0251 32.8536 34.9749 33.4393 35.5607C34.0251 36.1464 34.9749 36.1464 35.5607 35.5607L46.0607 25.0607C46.6464 24.4749 46.6464 23.5251 46.0607 22.9393L35.5607 12.4393C34.9749 11.8536 34.0251 11.8536 33.4393 12.4393Z" fill="#ECD087"/>
</svg>
