<svg width="48" height="48" viewBox="0 0 48 48" fill="none" xmlns="http://www.w3.org/2000/svg">
<path d="M0 12C0 8.68629 2.68629 6 6 6H42C45.3137 6 48 8.68629 48 12V36C48 39.3137 45.3137 42 42 42H6C2.68629 42 0 39.3137 0 36V12ZM6 9C4.34315 9 3 10.3431 3 12V12.6507L24 25.2507L45 12.6507V12C45 10.3431 43.6569 9 42 9H6ZM45 16.1493L30.8758 24.6238L45 33.3157V16.1493ZM44.8987 36.7759L27.9775 26.3628L24 28.7493L20.0225 26.3628L3.10129 36.7759C3.44323 38.0566 4.61145 39 6 39H42C43.3885 39 44.5568 38.0566 44.8987 36.7759ZM3 33.3157L17.1242 24.6238L3 16.1493V33.3157Z" fill="#ECD087"/>
</svg>
