<svg width="47" height="48" viewBox="0 0 47 48" fill="none" xmlns="http://www.w3.org/2000/svg">
<path d="M14.8894 12.4258C14.1552 13.1599 12.9657 13.1619 12.2315 12.4258L9.61578 9.81002C8.88261 9.07585 8.88462 7.88633 9.61578 7.15116L16.2183 0.550629C16.9505 -0.183543 18.14 -0.183543 18.8742 0.550629L21.4909 3.16637C22.2231 3.90054 22.2231 5.09006 21.4909 5.82222L14.8894 12.4258Z" fill="#D4CF9B"/>
<path d="M30.5214 28.3509C29.7882 29.082 28.5987 29.082 27.8656 28.3509L25.2488 25.7331C24.5146 25.0009 24.5146 23.8104 25.2488 23.0763L31.8514 16.4737C32.5845 15.7416 33.774 15.7395 34.5082 16.4737L37.124 19.0895C37.8581 19.8236 37.8561 21.0131 37.124 21.7473L30.5214 28.3509Z" fill="#D4CF9B"/>
<path d="M0.550402 28.9787L3.20526 26.3209C3.94143 25.5887 5.12794 25.5887 5.86111 26.3209L7.02556 27.4843L18.2638 16.2441L15.8296 13.8089L22.5826 7.05789L25.0178 9.4931L28.119 12.5923L30.5 14.9733L23.748 21.7263L21.364 19.3462L10.1277 30.5845L11.1788 31.6366C11.913 32.3678 11.915 33.5583 11.1788 34.2925L8.52399 36.9483C7.78781 37.6845 6.5993 37.6845 5.86613 36.9483L0.551405 31.6356C-0.18377 30.9004 -0.183769 29.7129 0.550402 28.9787Z" fill="#D4CF9B"/>
<path d="M20.1796 37.0516C20.1796 35.8491 21.1545 34.8722 22.3591 34.8722H39.3774C40.581 34.8722 41.5569 35.8491 41.5569 37.0516V40.5891H46.334V48H15.6853V40.5891H20.1796V37.0516Z" fill="#D4CF9B"/>
</svg>
