<svg width="48" height="48" viewBox="0 0 48 48" fill="none" xmlns="http://www.w3.org/2000/svg">
<path d="M24.6343 6.14073C24.2323 5.95309 23.7677 5.95309 23.3657 6.14073L0.865675 16.6407C0.323742 16.8936 -0.0161851 17.4443 0.000593982 18.0421C0.017373 18.6399 0.387651 19.1706 0.942917 19.3927L23.4429 28.3927C23.8005 28.5358 24.1995 28.5358 24.5571 28.3927L42 21.4156V39C40.3432 39 39 40.3431 39 42V48H48V42C48 40.3431 46.6569 39 45 39V20.2156L47.0571 19.3927C47.6124 19.1706 47.9826 18.6399 47.9994 18.0421C48.0162 17.4443 47.6763 16.8936 47.1343 16.6407L24.6343 6.14073ZM24 25.3845L5.27405 17.8941L24 9.15529L42.726 17.8941L24 25.3845Z" fill="#D4CF9B"/>
<path d="M12.5267 27.0955C12.1365 26.9492 11.703 26.9718 11.3301 27.1579C10.9572 27.3441 10.6786 27.6769 10.561 28.0767L9.06096 33.1767C8.84266 33.9189 9.22463 34.7054 9.94292 34.9927L23.4429 40.3927C23.8005 40.5358 24.1995 40.5358 24.5571 40.3927L38.0571 34.9927C38.7754 34.7054 39.1573 33.9189 38.9391 33.1767L37.4391 28.0767C37.3215 27.6769 37.0428 27.3441 36.6699 27.1579C36.2971 26.9718 35.8635 26.9492 35.4733 27.0955L24 31.398L12.5267 27.0955ZM12.3241 32.7141L12.9838 30.4709L23.4733 34.4045C23.8129 34.5318 24.1871 34.5318 24.5267 34.4045L35.0162 30.4709L35.6759 32.7141L24 37.3844L12.3241 32.7141Z" fill="#D4CF9B"/>
</svg>
