<svg width="46" height="40" viewBox="0 0 46 40" fill="none" xmlns="http://www.w3.org/2000/svg">
<path d="M23.094 6.99992C24.6877 6.95304 25.9534 5.68742 26.0002 4.09367C26.0471 2.35929 24.6409 0.953043 22.9065 0.999918C21.3127 1.04679 20.0471 2.31242 20.0002 3.90617C19.9534 5.64054 21.3596 7.04679 23.094 6.99992ZM44.844 24.9999H44.0002L38.0471 13.4687C38.8909 13.3749 39.7346 13.0468 40.4846 12.7187C41.6096 12.203 41.844 10.703 41.0002 9.81242L40.9534 9.76554C40.4377 9.24992 39.6409 9.06242 38.9377 9.39054C38.2815 9.67179 37.344 9.99992 36.4534 9.99992C33.8284 9.99992 32.6565 6.99992 23.0002 6.99992C13.344 6.99992 12.1721 9.99992 9.5471 9.99992C8.6096 9.99992 7.71898 9.71867 7.06273 9.39054C6.3596 9.10929 5.56273 9.24992 5.0471 9.76554L5.00023 9.81242C4.15648 10.703 4.39085 12.1562 5.51585 12.7187C6.26585 13.0937 7.1096 13.3749 7.95335 13.4687L2.00023 24.9999H1.15648C0.781478 24.9999 0.500228 25.328 0.547103 25.703C1.06273 28.703 4.8596 30.9999 9.50023 30.9999C14.1409 30.9999 17.9377 28.703 18.4534 25.703C18.5002 25.328 18.219 24.9999 17.844 24.9999H17.0002L11.0471 13.5155C14.9377 13.1874 17.0002 11.2187 20.0002 11.2187V33.9999C18.3596 33.9999 17.0002 35.3593 17.0002 36.9999H13.6721C12.3596 36.9999 11.0002 38.3593 11.0002 39.9999H35.0002C35.0002 38.3593 33.6409 36.9999 31.6721 36.9999H29.0002C29.0002 35.3593 27.6409 33.9999 26.0002 33.9999V11.2187C29.0002 11.2187 31.0627 13.1874 34.9534 13.5155L29.0002 24.9999H28.1565C27.7815 24.9999 27.5002 25.328 27.5471 25.703C28.0627 28.703 31.8596 30.9999 36.5002 30.9999C41.1409 30.9999 44.9377 28.703 45.4534 25.703C45.5002 25.328 45.219 24.9999 44.844 24.9999ZM14.0002 24.9999H5.00023L9.50023 16.5624L14.0002 24.9999ZM32.0002 24.9999L36.5002 16.5624L41.0002 24.9999H32.0002Z" fill="#D4CF9B"/>
</svg>
