<svg width="48" height="48" viewBox="0 0 48 48" fill="none" xmlns="http://www.w3.org/2000/svg">
<path d="M24.0022 0C17.4842 0 16.6662 0.0285008 14.1061 0.145002C11.5511 0.262003 9.8071 0.666507 8.28109 1.26001C6.70257 1.87302 5.36356 2.69303 4.02954 4.02754C2.69453 5.36156 1.87452 6.70057 1.25951 8.27859C0.664506 9.8051 0.259502 11.5496 0.144501 14.1036C0.0300001 16.6637 0 17.4822 0 24.0002C0 30.5183 0.0290008 31.3338 0.145002 33.8939C0.262503 36.4489 0.667007 38.1929 1.26001 39.7189C1.87352 41.2974 2.69353 42.6364 4.02804 43.9705C5.36156 45.3055 6.70057 46.1275 8.27809 46.7405C9.8051 47.334 11.5496 47.7385 14.1041 47.8555C16.6642 47.972 17.4817 48.0005 23.9992 48.0005C30.5178 48.0005 31.3333 47.972 33.8934 47.8555C36.4484 47.7385 38.1944 47.334 39.7214 46.7405C41.2994 46.1275 42.6364 45.3055 43.97 43.9705C45.305 42.6364 46.125 41.2974 46.74 39.7194C47.33 38.1929 47.735 36.4484 47.855 33.8944C47.97 31.3343 48 30.5183 48 24.0002C48 17.4822 47.97 16.6642 47.855 14.1041C47.735 11.5491 47.33 9.8051 46.74 8.27909C46.125 6.70057 45.305 5.36156 43.97 4.02754C42.6349 2.69253 41.2999 1.87252 39.7199 1.26001C38.1899 0.666507 36.4449 0.262003 33.8899 0.145002C31.3298 0.0285008 30.5148 0 23.9947 0H24.0022ZM21.8492 4.32504C22.4882 4.32404 23.2012 4.32504 24.0022 4.32504C30.4103 4.32504 31.1698 4.34805 33.7004 4.46305C36.0404 4.57005 37.3104 4.96105 38.1564 5.28956C39.2764 5.72456 40.0749 6.24456 40.9144 7.08457C41.7544 7.92458 42.2744 8.72459 42.7104 9.8446C43.0389 10.6896 43.4305 11.9596 43.5369 14.2996C43.652 16.8297 43.677 17.5897 43.677 23.9947C43.677 30.3998 43.652 31.1598 43.5369 33.6898C43.43 36.0299 43.0389 37.2999 42.7104 38.1449C42.2754 39.2649 41.7544 40.0624 40.9144 40.9019C40.0744 41.7419 39.2769 42.2619 38.1564 42.6969C37.3114 43.0269 36.0404 43.417 33.7004 43.5239C31.1703 43.639 30.4103 43.664 24.0022 43.664C17.5937 43.664 16.8342 43.639 14.3041 43.5239C11.9641 43.4159 10.6941 43.0249 9.8476 42.6964C8.72759 42.2614 7.92758 41.7414 7.08757 40.9014C6.24756 40.0614 5.72756 39.2634 5.29155 38.1429C4.96305 37.2979 4.57155 36.0279 4.46505 33.6879C4.35005 31.1578 4.32704 30.3978 4.32704 23.9887C4.32704 17.5797 4.35005 16.8237 4.46505 14.2936C4.57205 11.9536 4.96305 10.6836 5.29155 9.8376C5.72656 8.71759 6.24756 7.91758 7.08757 7.07757C7.92758 6.23756 8.72759 5.71756 9.8476 5.28155C10.6936 4.95155 11.9641 4.56155 14.3041 4.45405C16.5182 4.35405 17.3762 4.32405 21.8492 4.31905V4.32504ZM36.8134 8.31009C35.2234 8.31009 33.9333 9.5986 33.9333 11.1891C33.9333 12.7791 35.2234 14.0691 36.8134 14.0691C38.4034 14.0691 39.6934 12.7791 39.6934 11.1891C39.6934 9.5991 38.4034 8.30909 36.8134 8.30909V8.31009ZM24.0022 11.6751C17.1957 11.6751 11.6771 17.1937 11.6771 24.0002C11.6771 30.8068 17.1957 36.3229 24.0022 36.3229C30.8088 36.3229 36.3254 30.8068 36.3254 24.0002C36.3254 17.1937 30.8083 11.6751 24.0017 11.6751H24.0022ZM24.0022 16.0002C28.4203 16.0002 32.0023 19.5817 32.0023 24.0002C32.0023 28.4183 28.4203 32.0003 24.0022 32.0003C19.5837 32.0003 16.0022 28.4183 16.0022 24.0002C16.0022 19.5817 19.5837 16.0002 24.0022 16.0002Z" fill="#ECD087"/>
</svg>
